<svg width="24" height="24" viewBox="0 0 24 24" fill="none" xmlns="http://www.w3.org/2000/svg">
<path d="M19.882 7.528C19.708 7.203 19.369 7 19 7H14.326L15.962 1.275C16.048 0.973 15.988 0.649 15.799 0.398C15.61 0.147 15.314 0 15 0H7.99998C7.54898 0 7.15398 0.302 7.03498 0.737L4.03498 11.737C3.95298 12.038 4.01598 12.36 4.20498 12.607C4.39498 12.854 4.68798 13 4.99998 13H9.80198L8.01598 22.821C7.93098 23.287 8.18498 23.749 8.62498 23.927C8.74798 23.977 8.87498 24 8.99998 24C9.32698 24 9.64298 23.84 9.83298 23.555L19.833 8.555C20.037 8.248 20.056 7.854 19.882 7.528Z" fill="#FF6264"/>
</svg>
