<svg width="158" height="35" viewBox="0 0 158 35" fill="none" xmlns="http://www.w3.org/2000/svg">
<g clip-path="url(#clip0_4152_9098)">
<rect y="0.999939" width="32" height="32" rx="6.52574" fill="#07BFA5"/>
<path fill-rule="evenodd" clip-rule="evenodd" d="M6.51089 8.33148C7.07356 8.08355 7.46636 7.52095 7.46636 6.8666C7.46636 5.98295 6.75001 5.2666 5.86636 5.2666C4.9827 5.2666 4.26636 5.98295 4.26636 6.8666C4.26636 7.60408 4.76531 8.22502 5.44405 8.41028C6.192 13.5698 10.6331 17.5332 15.9998 17.5332C21.3666 17.5332 25.8077 13.5698 26.5556 8.41022C27.2343 8.2249 27.7331 7.60401 27.7331 6.8666C27.7331 5.98295 27.0168 5.2666 26.1331 5.2666C25.2494 5.2666 24.5331 5.98295 24.5331 6.8666C24.5331 7.52102 24.926 8.08368 25.4888 8.33156C24.7834 12.9382 20.8037 16.4666 15.9998 16.4666C11.196 16.4666 7.21622 12.9381 6.51089 8.33148Z" fill="white"/>
</g>
<path d="M52.216 27.1819C50.8813 27.1819 49.6853 26.9653 48.628 26.5319C47.5707 26.0986 46.7213 25.4573 46.08 24.6079C45.456 23.7586 45.1267 22.7359 45.092 21.5399H49.824C49.8933 22.2159 50.1273 22.7359 50.526 23.0999C50.9247 23.4466 51.4447 23.6199 52.086 23.6199C52.7447 23.6199 53.2647 23.4726 53.646 23.1779C54.0273 22.8659 54.218 22.4413 54.218 21.9039C54.218 21.4533 54.062 21.0806 53.75 20.7859C53.4553 20.4913 53.0827 20.2486 52.632 20.0579C52.1987 19.8673 51.5747 19.6506 50.76 19.4079C49.5813 19.0439 48.6193 18.6799 47.874 18.3159C47.1287 17.9519 46.4873 17.4146 45.95 16.7039C45.4127 15.9933 45.144 15.0659 45.144 13.9219C45.144 12.2233 45.7593 10.8973 46.99 9.94394C48.2207 8.97327 49.824 8.48794 51.8 8.48794C53.8107 8.48794 55.4313 8.97327 56.662 9.94394C57.8927 10.8973 58.5513 12.2319 58.638 13.9479H53.828C53.7933 13.3586 53.5767 12.8993 53.178 12.5699C52.7793 12.2233 52.268 12.0499 51.644 12.0499C51.1067 12.0499 50.6733 12.1973 50.344 12.4919C50.0147 12.7693 49.85 13.1766 49.85 13.7139C49.85 14.3033 50.1273 14.7626 50.682 15.0919C51.2367 15.4213 52.1033 15.7766 53.282 16.1579C54.4607 16.5566 55.414 16.9379 56.142 17.3019C56.8873 17.6659 57.5287 18.1946 58.066 18.8879C58.6033 19.5813 58.872 20.4739 58.872 21.5659C58.872 22.6059 58.6033 23.5506 58.066 24.3999C57.546 25.2493 56.7833 25.9253 55.778 26.4279C54.7727 26.9306 53.5853 27.1819 52.216 27.1819ZM70.5261 12.3359C72.1901 12.3359 73.5248 12.8906 74.5301 13.9999C75.5354 15.0919 76.0381 16.5999 76.0381 18.5239V26.9999H71.6181V19.1219C71.6181 18.1513 71.3668 17.3973 70.8641 16.8599C70.3614 16.3226 69.6854 16.0539 68.8361 16.0539C67.9868 16.0539 67.3108 16.3226 66.8081 16.8599C66.3054 17.3973 66.0541 18.1513 66.0541 19.1219V26.9999H61.6081V7.75994H66.0541V14.4419C66.5048 13.8006 67.1201 13.2893 67.9001 12.9079C68.6801 12.5266 69.5554 12.3359 70.5261 12.3359ZM85.7316 27.2079C84.3103 27.2079 83.0276 26.9046 81.8836 26.2979C80.757 25.6913 79.8643 24.8246 79.2056 23.6979C78.5643 22.5713 78.2436 21.2539 78.2436 19.7459C78.2436 18.2553 78.573 16.9466 79.2316 15.8199C79.8903 14.6759 80.7916 13.8006 81.9356 13.1939C83.0796 12.5873 84.3623 12.2839 85.7836 12.2839C87.205 12.2839 88.4876 12.5873 89.6316 13.1939C90.7756 13.8006 91.677 14.6759 92.3356 15.8199C92.9943 16.9466 93.3236 18.2553 93.3236 19.7459C93.3236 21.2366 92.9856 22.5539 92.3096 23.6979C91.651 24.8246 90.741 25.6913 89.5796 26.2979C88.4356 26.9046 87.153 27.2079 85.7316 27.2079ZM85.7316 23.3599C86.581 23.3599 87.3003 23.0479 87.8896 22.4239C88.4963 21.7999 88.7996 20.9073 88.7996 19.7459C88.7996 18.5846 88.505 17.6919 87.9156 17.0679C87.3436 16.4439 86.633 16.1319 85.7836 16.1319C84.917 16.1319 84.1976 16.4439 83.6256 17.0679C83.0536 17.6746 82.7676 18.5673 82.7676 19.7459C82.7676 20.9073 83.045 21.7999 83.5996 22.4239C84.1716 23.0479 84.8823 23.3599 85.7316 23.3599ZM100.128 14.5459C100.562 13.8699 101.16 13.3239 101.922 12.9079C102.685 12.4919 103.578 12.2839 104.6 12.2839C105.796 12.2839 106.88 12.5873 107.85 13.1939C108.821 13.8006 109.584 14.6673 110.138 15.7939C110.71 16.9206 110.996 18.2293 110.996 19.7199C110.996 21.2106 110.71 22.5279 110.138 23.6719C109.584 24.7986 108.821 25.6739 107.85 26.2979C106.88 26.9046 105.796 27.2079 104.6 27.2079C103.595 27.2079 102.702 26.9999 101.922 26.5839C101.16 26.1679 100.562 25.6306 100.128 24.9719V33.9159H95.6823V12.4919H100.128V14.5459ZM106.472 19.7199C106.472 18.6106 106.16 17.7439 105.536 17.1199C104.93 16.4786 104.176 16.1579 103.274 16.1579C102.39 16.1579 101.636 16.4786 101.012 17.1199C100.406 17.7613 100.102 18.6366 100.102 19.7459C100.102 20.8553 100.406 21.7306 101.012 22.3719C101.636 23.0133 102.39 23.3339 103.274 23.3339C104.158 23.3339 104.912 23.0133 105.536 22.3719C106.16 21.7133 106.472 20.8293 106.472 19.7199Z" fill="white"/>
<path d="M117.775 14.5459C118.208 13.8699 118.806 13.3239 119.569 12.9079C120.331 12.4919 121.224 12.2839 122.247 12.2839C123.443 12.2839 124.526 12.5873 125.497 13.1939C126.467 13.8006 127.23 14.6673 127.785 15.7939C128.357 16.9206 128.643 18.2293 128.643 19.7199C128.643 21.2106 128.357 22.5279 127.785 23.6719C127.23 24.7986 126.467 25.6739 125.497 26.2979C124.526 26.9046 123.443 27.2079 122.247 27.2079C121.241 27.2079 120.349 26.9999 119.569 26.5839C118.806 26.1679 118.208 25.6306 117.775 24.9719V33.9159H113.329V12.4919H117.775V14.5459ZM124.119 19.7199C124.119 18.6106 123.807 17.7439 123.183 17.1199C122.576 16.4786 121.822 16.1579 120.921 16.1579C120.037 16.1579 119.283 16.4786 118.659 17.1199C118.052 17.7613 117.749 18.6366 117.749 19.7459C117.749 20.8553 118.052 21.7306 118.659 22.3719C119.283 23.0133 120.037 23.3339 120.921 23.3339C121.805 23.3339 122.559 23.0133 123.183 22.3719C123.807 21.7133 124.119 20.8293 124.119 19.7199ZM144.651 19.5119C144.651 19.9279 144.625 20.3613 144.573 20.8119H134.511C134.581 21.7133 134.867 22.4066 135.369 22.8919C135.889 23.3599 136.522 23.5939 137.267 23.5939C138.377 23.5939 139.148 23.1259 139.581 22.1899H144.313C144.071 23.1433 143.629 24.0013 142.987 24.7639C142.363 25.5266 141.575 26.1246 140.621 26.5579C139.668 26.9913 138.602 27.2079 137.423 27.2079C136.002 27.2079 134.737 26.9046 133.627 26.2979C132.518 25.6913 131.651 24.8246 131.027 23.6979C130.403 22.5713 130.091 21.2539 130.091 19.7459C130.091 18.2379 130.395 16.9206 131.001 15.7939C131.625 14.6673 132.492 13.8006 133.601 13.1939C134.711 12.5873 135.985 12.2839 137.423 12.2839C138.827 12.2839 140.075 12.5786 141.167 13.1679C142.259 13.7573 143.109 14.5979 143.715 15.6899C144.339 16.7819 144.651 18.0559 144.651 19.5119ZM140.101 18.3419C140.101 17.5793 139.841 16.9726 139.321 16.5219C138.801 16.0713 138.151 15.8459 137.371 15.8459C136.626 15.8459 135.993 16.0626 135.473 16.4959C134.971 16.9293 134.659 17.5446 134.537 18.3419H140.101ZM151.443 14.9099C151.963 14.1126 152.613 13.4886 153.393 13.0379C154.173 12.5699 155.039 12.3359 155.993 12.3359V17.0419H154.771C153.661 17.0419 152.829 17.2846 152.275 17.7699C151.72 18.2379 151.443 19.0699 151.443 20.2659V26.9999H146.997V12.4919H151.443V14.9099Z" fill="#07BFA5"/>
<defs>
<clipPath id="clip0_4152_9098">
<rect width="32" height="32" fill="white" transform="translate(0 0.999939)"/>
</clipPath>
</defs>
</svg>
