<svg width="1305" height="534" viewBox="0 0 1305 534" fill="none" xmlns="http://www.w3.org/2000/svg">
<path fill-rule="evenodd" clip-rule="evenodd" d="M1280.13 226.039C1282.2 223.022 1285.66 221.232 1289.68 221.019L1289.69 221.018L1289.69 221.018C1291.94 220.907 1293.39 219.973 1294.16 218.852C1294.93 217.729 1295.29 216.035 1294.6 213.881L1300.87 211.869C1302.1 215.705 1301.66 219.57 1299.58 222.587C1297.5 225.603 1294.04 227.389 1290.03 227.59C1287.77 227.711 1286.32 228.652 1285.54 229.774C1284.77 230.895 1284.41 232.58 1285.11 234.717L1285.11 234.728L1285.11 234.728C1286.34 238.564 1285.9 242.428 1283.82 245.445C1281.74 248.464 1278.28 250.25 1274.26 250.449L1273.94 243.877C1276.18 243.766 1277.63 242.832 1278.4 241.711C1279.17 240.589 1279.54 238.896 1278.85 236.744C1277.6 232.917 1278.05 229.056 1280.13 226.039Z" fill="#FFBD59"/>
<path fill-rule="evenodd" clip-rule="evenodd" d="M27.2511 155.888C30.6024 157.37 33.0038 160.431 33.9621 164.344L33.9648 164.355L33.9648 164.355C34.492 166.539 35.6789 167.788 36.9244 168.338C38.1713 168.89 39.9034 168.93 41.8909 167.85L45.034 173.631C41.4946 175.555 37.6146 175.838 34.2633 174.357C30.9122 172.875 28.5152 169.816 27.5695 165.904C27.0308 163.71 25.8361 162.458 24.59 161.907C23.3445 161.356 21.6226 161.318 19.6517 162.398L19.642 162.403L19.6419 162.403C16.1025 164.328 12.2226 164.611 8.87127 163.129C5.51845 161.647 3.12071 158.586 2.176 154.671L8.57274 153.127C9.09998 155.312 10.2868 156.56 11.5323 157.111C12.7784 157.662 14.509 157.703 16.4947 156.624C20.0246 154.692 23.9001 154.407 27.2511 155.888Z" fill="#7B61FF"/>
<path d="M1137.99 13.4792C1141.04 11.7341 1144.84 13.9508 1144.82 17.4693L1144.75 33.1494C1144.74 36.6679 1140.92 38.8493 1137.88 37.0759L1124.33 29.1728C1121.3 27.3994 1121.32 23.0013 1124.37 21.2562L1137.99 13.4792Z" fill="#7B61FF"/>
<path d="M264.329 496.461C267.384 494.716 271.183 496.933 271.166 500.451L271.093 516.131C271.077 519.65 267.258 521.831 264.219 520.058L250.676 512.155C247.637 510.381 247.658 505.983 250.713 504.238L264.329 496.461Z" fill="#FF914D"/>
<path d="M174.55 299.763L167.52 306.792L160.491 299.763L155.253 305.001L162.27 312.03L155.253 319.06L160.491 324.298L167.52 317.268L174.55 324.298L179.787 319.06L172.758 312.03L179.787 305.001L174.55 299.763Z" fill="white"/>
<path d="M994.461 483.241L988.696 489.007L982.93 483.241L978.635 487.537L984.39 493.303L978.635 499.068L982.93 503.364L988.696 497.599L994.461 503.364L998.757 499.068L992.992 493.303L998.757 487.537L994.461 483.241Z" fill="#FF6264"/>
<path d="M343.74 34.2971C343.937 37.3387 343.162 40.3641 341.527 42.9366C339.892 45.5092 337.482 47.4958 334.645 48.6098C331.808 49.7238 328.69 49.9076 325.742 49.1347C322.794 48.3617 320.167 46.672 318.242 44.3094C316.316 41.9468 315.191 39.0334 315.028 35.9897C314.866 32.9461 315.675 29.9295 317.338 27.3754C319.001 24.8213 321.433 22.8617 324.283 21.7794C327.132 20.6971 330.251 20.5482 333.191 21.354L331.455 27.6874C329.858 27.2495 328.163 27.3305 326.614 27.9186C325.066 28.5066 323.745 29.5714 322.841 30.9592C321.937 32.347 321.498 33.9861 321.586 35.6399C321.674 37.2937 322.286 38.8767 323.332 40.1604C324.378 41.4442 325.805 42.3623 327.407 42.7823C329.009 43.2023 330.703 43.1024 332.245 42.4971C333.787 41.8918 335.096 40.8123 335.984 39.4145C336.873 38.0167 337.294 36.3728 337.187 34.7201L343.74 34.2971Z" fill="#FF6264"/>
<path d="M1117.7 349.985C1120.69 350.533 1123.44 352.019 1125.54 354.229C1127.64 356.439 1128.98 359.259 1129.37 362.281C1129.77 365.304 1129.19 368.373 1127.72 371.046C1126.26 373.719 1123.98 375.857 1121.22 377.151C1118.46 378.446 1115.36 378.831 1112.37 378.25C1109.38 377.669 1106.65 376.153 1104.57 373.919C1102.5 371.686 1101.19 368.851 1100.83 365.824C1100.47 362.798 1101.08 359.735 1102.58 357.079L1108.3 360.3C1107.49 361.743 1107.16 363.407 1107.35 365.052C1107.55 366.697 1108.26 368.237 1109.39 369.45C1110.51 370.664 1112 371.488 1113.62 371.803C1115.25 372.119 1116.93 371.91 1118.43 371.206C1119.93 370.503 1121.17 369.341 1121.96 367.889C1122.76 366.437 1123.07 364.769 1122.86 363.127C1122.65 361.484 1121.92 359.952 1120.78 358.751C1119.64 357.55 1118.14 356.743 1116.52 356.445L1117.7 349.985Z" fill="white"/>
</svg>
