<svg width="327" height="256" viewBox="0 0 327 256" fill="none" xmlns="http://www.w3.org/2000/svg">
<path d="M106.047 140.99L104.838 88.0437L161.983 72.8291L218.221 88.0437V140.078L161.983 156.509L106.047 140.99Z" fill="#01221D"/>
<path fill-rule="evenodd" clip-rule="evenodd" d="M191.986 9.01886C191.057 16.6348 186.305 17.2496 182.477 16.6932C189.074 19.2921 189.501 20.53 188.794 28.2907C189.933 22.7002 191.36 18.8309 199.231 18.937C197.745 18.7083 189.712 19.3523 191.986 9.01886Z" stroke="#FFBD59" stroke-width="1.42" stroke-linecap="round" stroke-linejoin="round"/>
<path d="M97.0708 42.7783C99.41 43.8413 100.838 44.2782 102.773 46.0215" stroke="#07BFA5" stroke-width="1.42" stroke-linecap="round" stroke-linejoin="round"/>
<path d="M255.994 63.8008C258.559 63.8961 260.027 64.1391 262.531 63.4648" stroke="#01221D" stroke-width="1.42" stroke-linecap="round" stroke-linejoin="round"/>
<path d="M249.844 50.5322C251.854 48.9209 253.148 48.1328 254.58 45.9728" stroke="#01221D" stroke-width="1.42" stroke-linecap="round" stroke-linejoin="round"/>
<path d="M66.5771 202.611C68.587 201 69.8809 200.212 71.3138 198.052" stroke="#01221D" stroke-width="1.42" stroke-linecap="round" stroke-linejoin="round"/>
<path d="M146.142 42.3146C144.313 41.9754 141.443 40.8163 140.139 38.4935M140.139 38.4935C139.467 37.2955 139.212 35.7881 139.731 33.9241C141.638 27.0759 147.747 38.1306 140.139 38.4935ZM140.139 38.4935C136.553 39.3072 130.464 38.434 129.581 30.4739M129.581 30.4739C129.373 28.6043 129.046 26.2401 129.92 23.622C133.348 13.3511 147.31 27.8506 129.581 30.4739ZM129.581 30.4739C124.399 27.4161 116.616 18.261 126.934 6.10265" stroke="#7B61FF" stroke-width="1.42" stroke-linecap="round"/>
<path d="M184.075 84.0344C186.383 82.6729 189.967 79.9363 191.84 76.8011M191.84 76.8011C192.935 74.9688 193.445 73.0003 192.776 71.0905C190.506 64.6186 181.826 71.8519 191.84 76.8011ZM191.84 76.8011C194.422 78.0701 201.325 79.3137 208.285 74.1362" stroke="#FF6264" stroke-width="1.42" stroke-linecap="round"/>
<path d="M133.973 82.6438C133.35 80.9605 132.643 78.0248 132.988 75.6087M132.988 75.6087C133.189 74.1967 133.749 72.9621 134.896 72.2587C138.781 69.8747 140.239 77.2982 132.988 75.6087ZM132.988 75.6087C131.121 75.1697 127.03 72.884 125.6 67.2534" stroke="#FF914D" stroke-width="1.42" stroke-linecap="round"/>
<path d="M235.264 46.0658C235.515 43.521 235.489 41.9987 236.521 39.5923" stroke="#01221D" stroke-width="1.42" stroke-linecap="round" stroke-linejoin="round"/>
<path d="M77.6683 206.723C77.9192 204.178 77.893 202.656 78.9257 200.249" stroke="#01221D" stroke-width="1.42" stroke-linecap="round" stroke-linejoin="round"/>
<path d="M100.303 166.277V117.317L157.951 103.097C160.6 102.444 163.368 102.437 166.02 103.079L224.873 117.317V166.262C224.873 168.082 223.645 169.672 221.884 170.132L193.428 177.567L166.323 184.649C163.478 185.392 160.49 185.385 157.649 184.628L103.273 170.142C101.522 169.676 100.303 168.09 100.303 166.277Z" fill="#07BFA5"/>
<path d="M100.303 167.828V119.667C100.303 118.287 101.244 117.085 102.584 116.754L161.272 102.278C161.739 102.163 162.227 102.162 162.695 102.275L222.578 116.762C223.925 117.088 224.873 118.283 224.873 119.669C224.873 124.641 224.873 137.052 224.873 152.6" stroke="#01221D" stroke-width="1.42" stroke-linecap="round"/>
<path d="M85.6693 108.721L104.532 89.0078C105.281 88.2243 106.395 87.9063 107.446 88.1762L157.55 101.051C159.788 101.626 160.563 104.409 158.944 106.058L139.322 126.05C138.565 126.821 137.452 127.125 136.408 126.847L87.0642 113.694C84.8594 113.106 84.0918 110.37 85.6693 108.721Z" fill="white" stroke="#01221D" stroke-width="1.42"/>
<path d="M157.871 69.7112L139.009 49.998C138.259 49.2145 137.145 48.8965 136.094 49.1664L85.9903 62.0409C83.7523 62.616 82.9773 65.3989 84.5959 67.048L104.218 87.0398C104.975 87.8109 106.088 88.1155 107.132 87.8372L156.476 74.684C158.681 74.0963 159.448 71.3598 157.871 69.7112Z" fill="white" stroke="#01221D" stroke-width="1.42"/>
<path d="M164.886 69.7112L183.748 49.998C184.498 49.2145 185.612 48.8965 186.663 49.1664L236.767 62.0409C239.005 62.616 239.78 65.3989 238.161 67.048L218.539 87.0398C217.782 87.8109 216.669 88.1155 215.625 87.8372L166.281 74.684C164.076 74.0963 163.309 71.3598 164.886 69.7112Z" fill="white" stroke="#01221D" stroke-width="1.42"/>
<path d="M238.297 108.417L219.435 88.7041C218.685 87.9205 217.571 87.6026 216.521 87.8725L166.417 100.747C164.179 101.322 163.404 104.105 165.022 105.754L184.645 125.746C185.401 126.517 186.514 126.822 187.558 126.543L236.902 113.39C239.107 112.802 239.874 110.066 238.297 108.417Z" fill="white" stroke="#01221D" stroke-width="1.42"/>
<path d="M162.892 119.54V152.281M162.892 156.088V164.463" stroke="#01221D" stroke-width="1.42" stroke-linecap="round"/>
<path d="M100.063 164.453C90.5245 162.618 71.6918 156.259 72.6659 145.498C75.71 139.384 103.107 138.161 209.04 179.738C247.395 195.635 258.963 177.292 249.831 145.498M249.831 145.498C240.699 113.704 243.234 107.903 259.571 110.036C280.355 112.749 269.922 145.498 249.831 145.498ZM249.831 145.498C242.931 145.294 230.434 144.055 225.076 123.511" stroke="#01221D" stroke-width="1.42" stroke-linecap="round"/>
<path fill-rule="evenodd" clip-rule="evenodd" d="M222.754 213.193C224.433 220.678 220.166 222.871 216.376 223.647C223.457 223.853 224.274 224.873 226.211 232.419C225.409 226.769 225.455 222.642 232.899 220.069C231.424 220.32 224.1 223.67 222.754 213.193Z" stroke="#01221D" stroke-width="1.42" stroke-linecap="round" stroke-linejoin="round"/>
<path d="M153.143 77.4619C155.85 78.1861 155.151 80.96 154.642 83.0527C153.832 86.3881 157.062 86.7911 158.292 86.5997" stroke="white" stroke-width="1.42" stroke-linecap="round"/>
</svg>
